<svg width="42" height="29" viewBox="0 0 42 29" fill="none" xmlns="http://www.w3.org/2000/svg">
<rect width="41.3633" height="28.3634" rx="5" fill="#1F72CD"/>
<path fill-rule="evenodd" clip-rule="evenodd" d="M7.41691 10.0454L3.54688 18.6097H8.17985L8.75421 17.2442H10.0671L10.6414 18.6097H15.741V17.5675L16.1954 18.6097H18.8333L19.2877 17.5455V18.6097H29.8935L31.1831 17.2796L32.3907 18.6097L37.838 18.6207L33.9558 14.3515L37.838 10.0454H32.4752L31.2198 11.3509L30.0503 10.0454H18.5126L17.5218 12.2559L16.5078 10.0454H11.8845V11.0521L11.3702 10.0454H7.41691ZM8.31248 11.2616H10.5708L13.1378 17.0691V11.2616H15.6117L17.5944 15.4255L19.4217 11.2616H21.8833V17.407H20.3855L20.3733 12.5915L18.1896 17.407H16.8498L14.6539 12.5915V17.407H11.5726L10.9884 16.0293H7.83241L7.24946 17.4058H5.59852L8.31248 11.2616ZM29.3437 11.2616H23.2533V17.4034H29.2494L31.182 15.3679L33.0447 17.4034H34.992L32.1617 14.3503L34.992 11.2616H33.1292L31.2064 13.2737L29.3437 11.2616ZM9.41184 12.3015L8.37207 14.7558H10.4504L9.41184 12.3015ZM24.7578 13.6558V12.534V12.5329H28.558L30.2161 14.327L28.4845 16.1309H24.7578V14.9062H28.0803V13.6558H24.7578Z" fill="white"/>
</svg>
