<svg width="42" height="30" viewBox="0 0 42 30" fill="none" xmlns="http://www.w3.org/2000/svg">
<rect width="41.3633" height="28.3634" transform="translate(0 0.709229)" fill="white"/>
<rect y="0.709229" width="41.3633" height="28.3634" rx="5" fill="white"/>
<path fill-rule="evenodd" clip-rule="evenodd" d="M26.126 23.1991C30.5746 23.1991 34.181 19.5466 34.181 15.0411C34.181 10.5355 30.5746 6.88306 26.126 6.88306C24.1321 6.88306 22.3074 7.61679 20.9008 8.8322C19.4943 7.61702 17.6697 6.88345 15.6761 6.88345C11.2274 6.88345 7.62109 10.5359 7.62109 15.0415C7.62109 19.547 11.2274 23.1995 15.6761 23.1995C17.67 23.1995 19.4946 22.4657 20.9013 21.2503C22.3078 22.4655 24.1323 23.1991 26.126 23.1991Z" fill="#ED0006"/>
<path fill-rule="evenodd" clip-rule="evenodd" d="M20.8965 21.2502C22.6285 19.7539 23.7268 17.5272 23.7268 15.0408C23.7268 12.5544 22.6285 10.3278 20.8965 8.83145C22.303 7.61634 24.1275 6.88281 26.1211 6.88281C30.5697 6.88281 34.1761 10.5353 34.1761 15.0408C34.1761 19.5464 30.5697 23.1988 26.1211 23.1988C24.1275 23.1988 22.303 22.4653 20.8965 21.2502Z" fill="#F9A000"/>
<path fill-rule="evenodd" clip-rule="evenodd" d="M20.9002 21.25C22.632 19.7536 23.7301 17.5272 23.7301 15.041C23.7301 12.5548 22.632 10.3284 20.9002 8.83203C19.1684 10.3284 18.0703 12.5548 18.0703 15.041C18.0703 17.5272 19.1684 19.7536 20.9002 21.25Z" fill="#FF5E00"/>
</svg>
