<svg width="42" height="30" viewBox="0 0 42 30" fill="none" xmlns="http://www.w3.org/2000/svg">
<rect x="0.179688" y="0.709229" width="41.3633" height="28.3634" rx="5" fill="white"/>
<path fill-rule="evenodd" clip-rule="evenodd" d="M17.9556 22.5116L18.2241 20.7991L17.626 20.7851H14.7695L16.7546 8.14723C16.7608 8.10897 16.7808 8.07344 16.81 8.04817C16.8394 8.0229 16.8768 8.00903 16.9159 8.00903H21.7322C23.3313 8.00903 24.4348 8.34306 25.0108 9.00244C25.2809 9.31176 25.4529 9.6351 25.5362 9.99078C25.6235 10.3641 25.6249 10.81 25.5398 11.354L25.5336 11.3936V11.7422L25.8037 11.8959C26.0311 12.017 26.2119 12.1556 26.3506 12.3144C26.5815 12.5789 26.731 12.9151 26.7941 13.3135C26.8594 13.7234 26.8378 14.2112 26.731 14.7634C26.6077 15.3985 26.4085 15.9518 26.1394 16.4044C25.892 16.8214 25.5768 17.1674 25.2024 17.4355C24.845 17.6902 24.4204 17.8836 23.9403 18.0073C23.475 18.1289 22.9446 18.1903 22.3628 18.1903H21.988C21.72 18.1903 21.4597 18.2872 21.2553 18.4609C21.0504 18.6382 20.9149 18.8806 20.8733 19.1456L20.845 19.2998L20.3705 22.3184L20.349 22.4292C20.3433 22.4643 20.3335 22.4817 20.3191 22.4936C20.3063 22.5044 20.2879 22.5116 20.2699 22.5116H17.9556Z" fill="#28356A"/>
<path fill-rule="evenodd" clip-rule="evenodd" d="M26.0593 11.4341C26.0451 11.5264 26.0286 11.6207 26.0102 11.7176C25.375 14.9919 23.2019 16.1231 20.4266 16.1231H19.0135C18.6741 16.1231 18.388 16.3705 18.3352 16.7067L17.4068 22.6196C17.3724 22.8404 17.5418 23.0392 17.7636 23.0392H20.27C20.5667 23.0392 20.8188 22.8227 20.8656 22.5289L20.8902 22.4011L21.3621 19.3943L21.3924 19.2294C21.4386 18.9345 21.6913 18.7179 21.988 18.7179H22.3628C24.7911 18.7179 26.692 17.7281 27.2476 14.8635C27.4796 13.667 27.3595 12.6678 26.7454 11.9651C26.5596 11.7532 26.329 11.5773 26.0593 11.4341Z" fill="#298FC2"/>
<path fill-rule="evenodd" clip-rule="evenodd" d="M25.3957 11.1681C25.2987 11.1397 25.1986 11.1139 25.0959 11.0907C24.9926 11.068 24.8869 11.048 24.778 11.0303C24.397 10.9685 23.9795 10.9392 23.5323 10.9392H19.7572C19.6642 10.9392 19.5759 10.9603 19.4969 10.9984C19.3227 11.0825 19.1934 11.248 19.1621 11.4506L18.359 16.5578L18.3359 16.7067C18.3887 16.3705 18.6748 16.1231 19.0142 16.1231H20.4273C23.2027 16.1231 25.3758 14.9914 26.0109 11.7176C26.0299 11.6207 26.0458 11.5264 26.0601 11.4341C25.8994 11.3485 25.7254 11.2753 25.538 11.2129C25.4917 11.1974 25.4439 11.1825 25.3957 11.1681Z" fill="#22284F"/>
<path fill-rule="evenodd" clip-rule="evenodd" d="M19.1631 11.4505C19.1945 11.2479 19.3238 11.0824 19.4979 10.9989C19.5775 10.9606 19.6652 10.9396 19.7583 10.9396H23.5333C23.9805 10.9396 24.398 10.969 24.779 11.0308C24.8879 11.0483 24.9936 11.0685 25.0969 11.0912C25.1996 11.1143 25.2997 11.1401 25.3968 11.1684C25.4449 11.1829 25.4927 11.1979 25.5394 11.2128C25.7268 11.2752 25.901 11.349 26.0617 11.434C26.2507 10.224 26.0601 9.40013 25.4085 8.65411C24.6901 7.8327 23.3937 7.4812 21.7346 7.4812H16.9181C16.5793 7.4812 16.2902 7.72858 16.2378 8.06534L14.2317 20.8331C14.1921 21.0857 14.3862 21.3136 14.6399 21.3136H17.6134L19.1631 11.4505" fill="#28356A"/>
</svg>
