<svg width="42" height="29" viewBox="0 0 42 29" fill="none" xmlns="http://www.w3.org/2000/svg">
<rect width="41.3633" height="28.3634" rx="5" fill="white"/>
<path fill-rule="evenodd" clip-rule="evenodd" d="M12.5553 19.214H10.0495L8.17042 12.0453C8.08124 11.7155 7.89186 11.424 7.6133 11.2866C6.91813 10.9413 6.15209 10.6665 5.31641 10.5279V10.2519H9.35308C9.9102 10.2519 10.328 10.6665 10.3977 11.148L11.3726 16.319L13.8772 10.2519H16.3134L12.5553 19.214ZM17.7067 19.214H15.3402L17.2889 10.2519H19.6554L17.7067 19.214ZM22.7168 12.7346C22.7865 12.2519 23.2043 11.9759 23.6918 11.9759C24.4579 11.9066 25.2923 12.0452 25.9887 12.3893L26.4066 10.4598C25.7101 10.1838 24.9441 10.0452 24.2489 10.0452C21.952 10.0452 20.2807 11.2865 20.2807 13.0094C20.2807 14.3201 21.4646 15.0083 22.3002 15.4229C23.2043 15.8363 23.5525 16.1123 23.4829 16.5257C23.4829 17.1458 22.7865 17.4218 22.0913 17.4218C21.2556 17.4218 20.4199 17.2151 19.6551 16.8698L19.2373 18.8005C20.073 19.1446 20.9771 19.2832 21.8127 19.2832C24.3882 19.3513 25.9887 18.1112 25.9887 16.2497C25.9887 13.9055 22.7168 13.7681 22.7168 12.7346ZM34.2699 19.214L32.3908 10.2519H30.3725C29.9546 10.2519 29.5368 10.5279 29.3975 10.9413L25.918 19.214H28.3541L28.8404 17.9045H31.8337L32.1122 19.214H34.2699ZM30.7221 12.6655L31.4172 16.0431H29.4685L30.7221 12.6655Z" fill="#172B85"/>
</svg>
